<?xml version="1.0" standalone="no"?><!DOCTYPE svg PUBLIC "-//W3C//DTD SVG 1.1//EN" "http://www.w3.org/Graphics/SVG/1.1/DTD/svg11.dtd"><svg t="1741855588414" class="icon" viewBox="0 0 1384 1024" version="1.1" xmlns="http://www.w3.org/2000/svg" p-id="8283" xmlns:xlink="http://www.w3.org/1999/xlink" width="270.3125" height="200"><path d="M89.104 0h1201.976c50.92 0 90.92 40 90.92 89.104v838.296c0 49.096-40 89.096-89.104 89.096H89.104C40 1018.32 0 978.32 0 929.216V89.104C0 40 40 0 89.104 0z" fill="#162A7C" p-id="8284"></path><path d="M232 392h154.232l30.84 121.464C355.392 416.288 232 392 232 392z" fill="#E4A252" p-id="8285"></path><path d="M370.88 617.264L312 433.968c72.904 35.336 100.944 94.96 100.944 94.96l5.616 22.08L488.664 392h78.512L452.2 617.256H370.888v0.008zM635.704 615.04H560L604.872 392h75.704zM879 591.328c-17.384 24.936-53.072 37.432-106.52 37.432-26.48 0-57.336-3.072-92.48-9.224l14-49.592c86.736 15.184 121.264 5.592 128-2.456 4.528-5.432 0.64-14.576-1.4-17.12-21.464-16.768-38.848-23.96-54.192-30.32-20.32-8.416-45.616-18.896-49.776-48.384-4.704-33.392 12.528-52.192 27.832-62.096 49.464-32.024 141.752-11.352 159.736-6.88l-19.352 48.464c-31.32-7.704-83.312-12.8-99.456-2.32-1.6 1.04-6.488 4.208-4.656 17.24a5.76 5.76 0 0 0 0.456 1.968c1.44 1.888 9.616 4.72 15.24 7.064 16.616 6.872 41.728 17.28 70.4 39.856 17.696 13.936 31.784 48.24 12.16 76.368zM1080.08 615.04l-8.4-30.912h-95.36l-15.416 32.024H888L1009.984 392h81.328l56.08 223.04h-67.312z" fill="#FFFFFF" p-id="8286"></path><path d="M1016 518.136h48.496s-16.08-62.728-16.88-62.128L1016 518.136z" fill="#333333" p-id="8287"></path></svg>