<?xml version="1.0" standalone="no"?><!DOCTYPE svg PUBLIC "-//W3C//DTD SVG 1.1//EN" "http://www.w3.org/Graphics/SVG/1.1/DTD/svg11.dtd"><svg t="1741855829457" class="icon" viewBox="0 0 1599 1024" version="1.1" xmlns="http://www.w3.org/2000/svg" p-id="9458" xmlns:xlink="http://www.w3.org/1999/xlink" width="312.3046875" height="200"><path d="M1456.280394 0H143.243071c-5.46958 0-10.948823 0-16.408739 0.028991-4.609522 0.038654-9.20938 0.086972-13.818902 0.212598-10.040447 0.27058-20.167867 0.869721-30.082688 2.647818a101.564101 101.564101 0 0 0-28.584835 9.421979 95.978559 95.978559 0 0 0-42.036521 42.036521 101.109914 101.109914 0 0 0-9.421979 28.604162C1.091983 92.876554 0.502506 102.994309 0.231926 113.025093a678.575756 678.575756 0 0 0-0.212599 13.818903C0 132.294248 0 137.763828 0 143.243071v737.504195c0 5.479243 0 10.939159 0.019327 16.418402 0.028991 4.599858 0.086972 9.20938 0.212599 13.818902 0.27058 10.011457 0.869721 20.138876 2.657481 30.053697a101.080923 101.080923 0 0 0 9.412315 28.604162 95.640334 95.640334 0 0 0 17.68433 24.352192 95.418072 95.418072 0 0 0 24.352192 17.68433c9.151399 4.667503 18.52506 7.634219 28.604162 9.441306 9.905157 1.768433 20.032577 2.367574 30.073024 2.638154 4.609522 0.106299 9.20938 0.164281 13.818902 0.193271 5.459916 0.038654 10.939159 0.038654 16.408739 0.038654h1313.037323c5.459916 0 10.939159 0 16.399076-0.038654 4.599858-0.019327 9.199717-0.086972 13.828566-0.193271 10.02112-0.27058 20.14854-0.869721 30.082687-2.638154a101.254867 101.254867 0 0 0 28.584835-9.441306 96.200821 96.200821 0 0 0 42.036521-42.036522c4.667503-9.151399 7.624555-18.52506 9.412316-28.604162 1.797424-9.914821 2.377238-20.04224 2.647818-30.053697 0.125626-4.609522 0.193271-9.219044 0.212598-13.818902 0.038654-5.479243 0.038654-10.939159 0.038654-16.418402V143.252734c0-5.479243 0-10.948823-0.038654-16.418402a609.452253 609.452253 0 0 0-0.212598-13.809239c-0.27058-10.030784-0.850394-20.14854-2.647818-30.073024a100.501109 100.501109 0 0 0-9.412316-28.604162 96.055868 96.055868 0 0 0-42.036521-42.036521A101.660737 101.660737 0 0 0 1516.590723 2.89907c-9.934148-1.78776-20.061567-2.377238-30.082687-2.647817a690.143047 690.143047 0 0 0-13.828566-0.212599C1467.219554 0 1461.74031 0 1456.280394 0z" p-id="9459"></path><path d="M1456.280394 34.131723l16.157486 0.02899c4.367933 0.028991 8.745529 0.077309 13.142453 0.193272 7.66321 0.212598 16.611674 0.628132 24.960997 2.125985 7.247676 1.304582 13.335724 3.285613 19.172519 6.261992a61.769528 61.769528 0 0 1 27.096645 27.125636c2.957052 5.798141 4.92842 11.847535 6.233001 19.162855 1.488189 8.252687 1.903723 17.230142 2.106658 24.932006 0.125626 4.348606 0.183608 8.697211 0.193272 13.142453 0.048318 5.382607 0.048318 10.755551 0.048318 16.147822v737.504195c0 5.392271 0 10.765215-0.038655 16.254122-0.019327 4.348606-0.077309 8.697211-0.193271 13.045817-0.212598 7.6922-0.628132 16.669655-2.135649 25.018978a66.24376 66.24376 0 0 1-6.233001 19.085547 61.817846 61.817846 0 0 1-27.135299 27.125636c-5.798141 2.957052-11.866862 4.938083-19.046893 6.233001-8.513604 1.51718-17.84861 1.932714-24.874025 2.125985-4.416251 0.096636-8.813174 0.164281-13.32606 0.183608-5.36328 0.038654-10.755551 0.038654-16.128496 0.038654H143.030472c-5.314962 0-10.629925 0-16.041523-0.038654a724.699967 724.699967 0 0 1-13.045817-0.173944c-7.189695-0.193271-16.524702-0.618468-24.97066-2.125985a67.045836 67.045836 0 0 1-19.191846-6.28132 61.238031 61.238031 0 0 1-15.674308-11.40301 61.411976 61.411976 0 0 1-11.383683-15.683971 67.016845 67.016845 0 0 1-6.242665-19.182183c-1.507517-8.339659-1.932714-17.27846-2.125985-24.912679a638.645893 638.645893 0 0 1-0.193272-13.094134l-0.02899-12.823555V139.870486l0.019327-12.804228a644.559996 644.559996 0 0 1 0.193271-13.113462c0.212598-7.653546 0.628132-16.592347 2.145312-24.999651a66.910546 66.910546 0 0 1 6.242665-19.143529 61.460293 61.460293 0 0 1 11.403011-15.683971 61.711546 61.711546 0 0 1 15.693635-11.40301 67.258434 67.258434 0 0 1 19.133864-6.242665c8.358986-1.497853 17.317114-1.913386 24.989988-2.125985a659.635163 659.635163 0 0 1 13.084471-0.193272l16.205804-0.02899h1313.037323" fill="#FFFFFF" p-id="9460"></path><path d="M420.442523 345.665833c13.56765-16.959562 22.767367-39.736592 20.341811-63.006464-19.848969 0.985684-44.065871 13.094135-58.097371 30.073024-12.591629 14.534007-23.733723 38.258066-20.834653 60.551918 22.284188 1.932714 44.549049-11.132431 58.590213-27.618478M440.533082 377.64258c-32.372953-1.932714-59.875468 18.36078-75.327514 18.36078-15.461709 0-39.127787-17.394423-64.72658-16.920908-33.310319 0.483178-64.21441 19.327136-81.125654 49.284197-34.769518 59.914123-9.18039 148.81895 24.642098 197.619969 16.418402 24.15892 36.20939 50.733733 62.281697 49.77704 24.642099-0.966357 34.296003-15.944887 64.233738-15.944888 29.928071 0 38.625282 15.944887 64.707252 15.461709 27.038664-0.483178 43.949908-24.15892 60.36831-48.31784 18.843958-27.541169 26.545822-54.115982 27.029001-55.565517-0.483178-0.483178-52.144614-20.303157-52.627793-79.734101-0.483178-49.767376 40.567659-73.443118 42.500373-74.902317-23.1829-34.28634-59.401953-38.151767-71.964592-39.118124" p-id="9461"></path><path d="M763.160968 310.297174c70.331449 0 119.316076 48.482121 119.316076 119.064823 0 70.833955-49.989638 119.567329-121.074845 119.567329h-77.869032V672.777615h-56.261294V310.297174h135.889095z m-79.627801 191.406294h64.552635c48.994291 0 76.864021-26.371878 76.864021-72.090218 0-45.708677-27.879394-71.838966-76.612768-71.838966h-64.803888v143.929184zM896.431237 597.6627c0-46.472099 35.416977-73.09523 100.723371-77.115274l70.080196-4.271297v-20.100222c0-29.377247-19.3368-45.457425-53.748766-45.457424-28.391563 0-48.994291 14.562997-53.246261 36.91483h-50.75306c1.51718-46.964941 45.718341-81.125655 105.506837-81.125655 64.301383 0 106.250932 33.658208 106.250932 85.909121v180.351173h-51.989996v-43.457066h-1.256264c-14.823914 28.3819-47.486774 46.211183-82.903751 46.211183-52.241249 0-88.663238-31.136017-88.663238-77.859369z m170.803567-23.356844v-20.351475l-62.542613 4.020045c-35.175388 2.261275-53.497513 15.316756-53.497514 38.171094 0 22.110244 19.085547 36.431652 48.974964 36.431652 38.171094 0 67.065163-24.371519 67.065163-58.271316zM1169.050158 769.722531v-43.447402c3.517539 0.492842 12.050469 0.995348 16.573019 0.995347 24.864361 0 38.934516-10.533289 47.477111-37.678252l5.025055-16.070514-95.205473-263.747766h58.773821l66.321069 214.009381h1.256263l66.311405-214.009381h57.275969l-98.723013 277.054499c-22.612749 63.557288-48.482121 84.411268-103.235898 84.411268-4.271297 0-18.0902-0.502506-21.849328-1.51718z" p-id="9462"></path></svg>